# xmcd
#
# Track frame offsets:
# 150
# 16679
# 27847
# 54823
# 65506
# 72015
#
# Disc length: 1094 seconds
#
# Revision: 0
# Processed by: cddbd v1.5PL3 Copyright (c) Steve Scherf et al.
# Submitted via: Audion 3.0.2 (http://www.panic.com/audion/)
#
DISCID=3e044406
DTITLE=Nice Nice - s/t
DYEAR=1900
DGENRE=
TTITLE0=Theme from Flux Bandits
TTITLE1=D_ Says It's the Latest
TTITLE2=Do the No Compute
TTITLE3=Spotlight On
TTITLE4=So Much Bohemians
TTITLE5=Take This Town Off the Map
EXTD=
EXTT0=
EXTT1=
EXTT2=
EXTT3=
EXTT4=
EXTT5=
PLAYORDER=
